<svg width="15" height="23" viewBox="0 0 15 23" fill="none" xmlns="http://www.w3.org/2000/svg">
<path d="M3.33333 15.6667C3.33333 13.8334 4.83333 12.3334 6.66667 12.3334H9.16667C12.3833 12.3334 15 9.71675 15 6.50008C15 3.28341 12.3833 0.666748 9.16667 0.666748H3.33333C2.41667 0.666748 1.66667 1.41675 1.66667 2.33341C1.66667 3.25008 2.41667 4.00008 3.33333 4.00008H9.16667C10.55 4.00008 11.6667 5.11675 11.6667 6.50008C11.6667 7.88341 10.55 9.00008 9.16667 9.00008H6.66667C2.98333 9.00008 0 11.9834 0 15.6667C0 19.3501 2.98333 22.3334 6.66667 22.3334H10V19.0001H6.66667C4.83333 19.0001 3.33333 17.5001 3.33333 15.6667Z" fill="white"/>
</svg>
